<svg viewBox="0 0 512 512" xml:space="preserve" xmlns="http://www.w3.org/2000/svg"><path d="m79.18 276.008 24.366-1.291v25.979c-6.671 2.69-13.501 4.035-20.492 4.035-16.891 0-30.821-6.034-41.793-18.102-10.222-11.311-15.329-24.94-15.329-40.884 0-14.006 4.22-25.452 12.667-34.342 8.443-8.888 19.121-13.333 32.03-13.333 12.586 0 24.096 5.096 34.532 15.281l-4.034 6.502 5.647-1.291 13.394-12.748c-6.777-4.624-13.878-7.959-21.3-10.005a91.137 91.137 0 0 0-24.688-3.388c-19.795 0-35.822 6.132-48.086 18.396-11.406 11.513-17.106 25.496-17.106 41.955 0 14.954 4.679 27.916 14.038 38.889 11.187 13.018 27 19.524 47.441 19.524 9.787 0 18.662-.916 26.624-2.743l23.075-5.325v-19.686c0-3.228.105-5.811.322-7.746.215-.859.751-1.72 1.613-2.582l4.195-4.034H92.09l-12.91 6.939zM177.508 236.206c-12.049 0-22.026 3.847-29.933 11.538-7.906 7.692-11.86 16.917-11.86 27.673 0 9.898 3.333 18.504 10.004 25.817 7.528 8.178 17.319 9.969 29.368 9.969 12.479 0 22.591-4.14 30.337-12.424 7.099-7.637 10.649-14.271 10.649-24.492 0-10.218-3.444-18.984-10.327-26.302-7.422-7.851-16.837-11.779-28.238-11.779zm17.75 63.075c-3.981 5.485-9.468 7.082-16.458 7.082-8.822 0-15.813-2.76-20.977-12.873-4.304-8.283-6.455-17.319-6.455-27.109 0-8.714 2.474-15.273 7.423-19.686 4.087-3.656 8.928-5.486 14.523-5.486 8.928 0 15.919 5.111 20.977 15.329 3.873 7.963 5.809 16.62 5.809 25.98-.001 7.53-1.615 12.354-4.842 16.763zM268.192 236.206c-12.049 0-22.025 3.847-29.932 11.538-7.907 7.692-11.86 16.917-11.86 27.673 0 9.898 3.333 16.209 10.005 23.523 7.528 8.177 17.318 12.263 29.368 12.263 12.478 0 22.59-1.845 30.338-10.13 7.098-7.637 10.646-16.564 10.646-26.786 0-10.218-3.443-18.984-10.326-26.302-7.422-7.851-16.837-11.779-28.239-11.779zm17.75 63.075c-3.98 5.485-9.467 7.082-16.459 7.082-8.821 0-15.813-2.76-20.977-12.873-4.305-8.283-6.455-17.319-6.455-27.109 0-8.714 2.474-15.273 7.423-19.686 4.087-3.656 8.928-5.486 14.522-5.486 8.929 0 15.92 5.111 20.977 15.329 3.874 7.963 5.81 16.62 5.81 25.98 0 7.53-1.614 12.354-4.841 16.763zM388.831 238.658h-33.24c-12.263 0-21.865 2.932-28.803 8.794-6.939 5.864-10.407 15.393-10.407 23.998 0 6.776 2.311 12.586 6.938 17.426 5.055 5.273 11.671 7.907 19.847 7.907h5.165c-1.078 2.533-1.614 4.592-1.614 6.176 0 3.063 1.614 6.652 4.841 10.769-13.877.968-24.151 3.44-30.82 7.422-8.286 4.945-12.425 11.51-12.425 19.686 0 6.455 2.852 11.779 8.553 15.975 6.346 4.732 15.059 7.101 26.14 7.101 13.123 0 23.665-3.18 31.627-9.533 7.207-5.819 10.812-12.821 10.812-21.007 0-5.063-1.347-9.533-4.034-13.411-1.83-2.691-5.002-5.764-9.52-9.21l-5.809-4.523c-2.8-2.153-4.196-4.47-4.196-6.949 0-2.261 1.506-4.901 4.519-7.919 4.409-3.444 7.528-6.462 9.358-9.049 2.797-3.983 4.195-8.615 4.195-13.895 0-8.188-3.819-17.752-11.457-24.108h10.006l10.324-5.65zm-18.395 90.558c2.796 3.12 4.195 6.616 4.195 10.489 0 5.165-1.991 9.305-5.97 12.426-4.305 3.332-10.222 5.002-17.75 5.002-8.499 0-15.357-1.83-20.574-5.486-5.218-3.659-7.826-8.391-7.826-14.199 0-7.854 4.624-13.395 13.878-16.621 5.055-1.723 10.703-2.582 16.943-2.582 1.613 0 2.848.054 3.71.162 6.778 4.839 11.24 8.443 13.394 10.809zm-8.713-41.468c-3.014 3.012-6.671 4.518-10.973 4.518-6.349 0-11.457-3.442-15.329-10.328-3.228-5.701-4.842-11.832-4.842-18.395 0-4.087.807-9.77 2.421-12.46 2.688-4.732 6.83-7.1 12.425-7.1 6.132 0 11.187 5.791 15.168 12.783 3.441 6.026 5.163 12.426 5.163 19.202 0 5.163-1.346 9.091-4.033 11.78zM418 301.284v-95.877c.355-2.603 1.947-5.862 2.778-6.879.752-.86 2.526-2.098 5.326-3.711h-23.076l-12.101 5.647H403v105.19c-.719 1.52-3.86 3.305-5.457 5.377h28.562l5.97-3.549c-3.659-.429-6.401-.699-8.229-.808-2.326-.267-5.846-1.799-5.846-5.39zM484.266 303.262c-8.13 0-15.313-2.651-21.549-7.958-6.573-5.501-10.859-12.911-12.863-22.218l12.863-.901 39.259-14.264c-2.229-6.704-6.127-11.658-11.693-14.863-4.791-2.8-10.526-4.204-17.208-4.204-9.69 0-18.21 2.853-25.561 8.558-8.466 6.605-12.695 15.314-12.695 26.124 0 6.005 1.336 11.762 4.009 17.265 3.116 6.006 7.459 10.81 13.03 14.412 6.123 3.903 13.532 5.855 22.219 5.855 3.676 0 7.126-.352 10.359-1.052 5.454-1.898 9.242-3.4 11.358-4.502l8.854-7.508c-7.796 3.507-14.591 5.256-20.382 5.256zm-35.081-38.585c0-7.206 2.393-12.709 7.183-16.514 3.564-2.901 7.574-4.354 12.029-4.354 4.344 0 8.187 1.377 11.526 4.128 3.342 2.754 5.013 5.682 5.013 8.783 0 1.403-1.616 2.754-4.845 4.053l-30.404 11.861c-.335-5.405-.502-8.056-.502-7.957z" fill="#ffffff" class="fill-000000"></path></svg>