<?xml version="1.0" encoding="utf-8"?>
<svg width="50px" height="50px" viewBox="0 0 50 50" version="1.1" xmlns:xlink="http://www.w3.org/1999/xlink" xmlns="http://www.w3.org/2000/svg">
  <defs>
    <path d="M50 0L50 0L50 50L0 50L0 0L50 0Z" id="path_1" />
    <clipPath id="clip_1">
      <use xlink:href="#path_1" clip-rule="evenodd" fill-rule="evenodd" />
    </clipPath>
  </defs>
  <g id="Camera">
    <path d="M50 0L50 0L50 50L0 50L0 0L50 0Z" id="Camera" fill="none" stroke="none" />
    <path d="M14 4C8.48867 4 4 8.48867 4 14L4 36C4 41.5113 8.48867 46 14 46L36 46C41.5113 46 46 41.5113 46 36L46 14C46 8.48867 41.5113 4 36 4L14 4L14 4ZM14 6L36 6C40.4307 6 44 9.56933 44 14L44 36C44 40.4307 40.4307 44 36 44L14 44C9.56933 44 6 40.4307 6 36L6 14C6 9.56933 9.56933 6 14 6L14 6ZM21.1328 12C20.0799 12 19.1016 12.5548 18.5605 13.457L16.7246 16.5137C16.5423 16.8156 16.2182 17 15.8672 17L11 17C9.90694 17 9 17.9069 9 19L9 35C9 36.0931 9.90694 37 11 37L39 37C40.0931 37 41 36.0931 41 35L41 19C41 17.9069 40.0931 17 39 17L34.1328 17C33.7797 17 33.4564 16.8174 33.2754 16.5156C33.2754 16.515 33.2754 16.5143 33.2754 16.5137L31.4395 13.457C30.8984 12.5548 29.9196 12 28.8672 12L21.1328 12L21.1328 12ZM12 14C11.448 14 11 14.448 11 15L11 16L15 16L15 15C15 14.448 14.552 14 14 14L12 14L12 14ZM21.1328 14L28.8672 14C29.2188 14 29.5436 14.1826 29.7246 14.4844C29.7246 14.485 29.7246 14.4857 29.7246 14.4863L31.5586 17.543C32.0996 18.4451 33.0799 19 34.1328 19L39 19L39 35L11 35L11 19L15.8672 19C16.9196 19 17.8976 18.446 18.4395 17.5449C18.4401 17.5443 18.4408 17.5436 18.4414 17.543L20.2754 14.4863C20.2754 14.4857 20.2754 14.485 20.2754 14.4844C20.4563 14.1826 20.7797 14 21.1328 14L21.1328 14ZM25 20C21.1458 20 18 23.1459 18 27C18 30.8542 21.1458 34 25 34C28.8542 34 32 30.8542 32 27C32 23.1459 28.8542 20 25 20L25 20ZM34 20C33.4477 20 33 20.4477 33 21C33 21.5523 33.4477 22 34 22C34.5523 22 35 21.5523 35 21C35 20.4477 34.5523 20 34 20L34 20ZM25 22C27.7733 22 30 24.2267 30 27C30 29.7733 27.7733 32 25 32C22.2267 32 20 29.7733 20 27C20 24.2267 22.2267 22 25 22L25 22Z" id="Shape" fill="white" fill-rule="evenodd" stroke="none" clip-path="url(#clip_1)" />
  </g>
</svg>